<?xml version="1.0" encoding="utf-8"?>
<!-- Generator: Adobe Illustrator 19.1.0, SVG Export Plug-In . SVG Version: 6.00 Build 0)  -->
<svg version="1.1" id="レイヤー_1" xmlns="http://www.w3.org/2000/svg" xmlns:xlink="http://www.w3.org/1999/xlink" x="0px"
	 y="0px" viewBox="-197 404.9 200 32" style="enable-background:new -197 404.9 200 32;" xml:space="preserve">
<style type="text/css">
	.st0{fill:#FFFFFF;}
</style>
<path class="st0" d="M-126.3,431.1c-5.2,0-9.4-4.2-9.4-9.4s4.2-9.4,9.4-9.4s9.4,4.2,9.4,9.4S-121.1,431.2-126.3,431.1z
	 M-122.2,418.5c0.1,0,0.2,0,0.3,0c0.3,0,0.5,0,0.8,0c0.1,0,0.1,0.1,0.2,0.1c0,0.1,0,0.2,0,0.3c0,0.1,0,0.1,0,0.2
	c0.2,0.3,0.1,0.5-0.2,0.5c0.1,0.2,0.1,0.2-0.1,0.5c0.2,0,0.3,0.1,0.5,0.2c0,0.2-0.1,0.4-0.1,0.6c0,0,0.1,0,0.1,0.1
	c0.2,0.1,0.3,0.1,0.5,0.2c0.1,0,0.1,0.1,0.2,0.1c0,0.2,0,0.5-0.1,0.7c0,0.1,0,0.1,0.1,0.2s0.2,0.2,0.3,0.3c0.1,0.1,0.2,0.1,0.4,0.2
	c0,0.3-0.1,0.5-0.1,0.8c0,0.1,0,0.2,0.1,0.3s0.3,0.2,0.4,0.3c0,0,0.1,0,0.1,0.1c0.1-0.2,0.1-0.4,0.2-0.6c0.1-0.5,0.2-1.1,0.2-1.6
	c0-0.4,0-0.8-0.1-1.2c0-0.3-0.1-0.5-0.1-0.8c-0.2-0.7-0.5-1.3-0.8-1.9c-0.2-0.3-0.3-0.5-0.5-0.8c-0.3-0.4-0.7-0.8-1.1-1.2
	c-0.2-0.2-0.4-0.4-0.6-0.5c-0.6-0.4-1.2-0.7-1.9-1c-0.2-0.1-0.5-0.2-0.8-0.2c-0.5-0.1-1-0.2-1.6-0.2c-0.4,0-0.9,0-1.3,0.1
	c-0.3,0-0.5,0.1-0.8,0.1c-0.6,0.2-1.3,0.4-1.8,0.8c-0.3,0.1-0.5,0.3-0.8,0.5c-0.5,0.4-1,0.8-1.4,1.3c-0.1,0.2-0.3,0.3-0.4,0.5
	c-0.4,0.5-0.6,1-0.9,1.6c-0.1,0.4-0.3,0.7-0.4,1.1c-0.3,0.3-0.3,0.8-0.3,1.4c0,0.4,0,0.8,0.1,1.3c0,0.3,0.1,0.6,0.1,0.8
	c0.2,0.7,0.5,1.3,0.8,1.9c0.2,0.3,0.3,0.5,0.5,0.8c0.3,0.4,0.7,0.8,1.1,1.2c0.2,0.2,0.4,0.3,0.6,0.5c0.5,0.4,1,0.6,1.6,0.9
	c0.4,0.1,0.7,0.3,1.1,0.4c0.5,0.1,1,0.1,1.6,0.2c0.4,0,0.8,0,1.3-0.1c0.3,0,0.6-0.1,0.9-0.2c0.4-0.1,0.7-0.3,1.1-0.4
	c0.2-0.1,0.4-0.2,0.6-0.3c0-0.1,0-0.2,0-0.2c0.1-0.2,0-0.3-0.1-0.5v-0.1c0-0.1,0-0.2,0-0.2c0-0.2,0-0.4-0.1-0.5s-0.1-0.2-0.2-0.4
	c0-0.1-0.1-0.2-0.1-0.2c-0.1-0.2-0.1-0.3-0.2-0.5v-0.1c-0.1-0.1-0.2-0.3-0.2-0.5c0-0.1-0.1-0.2-0.2-0.2c-0.2-0.1-0.3-0.2-0.3-0.4
	c0-0.2-0.1-0.4-0.2-0.5c-0.1,0-0.1-0.1-0.1-0.2c-0.1-0.1-0.1-0.1-0.2,0c-0.3,0.2-0.5,0.3-0.8,0.5c-0.5,0.2-0.9,0.4-1.4,0.3
	c-0.4,0-0.7,0-1.1,0c-0.6,0-1.2,0.2-1.8,0.5c-0.3,0.2-0.5,0.3-0.8,0.5c-0.1,0.1-0.2,0.1-0.3,0.1c-0.2,0-0.4,0-0.7-0.1
	c-0.1,0-0.1,0-0.2,0c-0.2,0.1-0.5,0.1-0.7,0c-0.2-0.1-0.2-0.2-0.2-0.4v-0.1c0-0.1,0-0.1,0-0.2c0-0.3,0-0.5,0.1-0.8
	c0.1-0.4,0.3-0.7,0.6-0.9c0.1-0.1,0.3-0.2,0.4-0.3c0.2-0.1,0.4-0.3,0.5-0.6c0.2-0.6,0.6-1.1,1.1-1.4c0.2-0.2,0.5-0.3,0.7-0.5
	c0.2-0.1,0.4-0.3,0.5-0.6c0-0.1,0-0.1,0.1-0.2c0.1-0.2,0.2-0.4,0.2-0.7v-0.1c0.1-0.2,0.3-0.4,0.5-0.5c0.1,0,0.1-0.1,0.2-0.1
	s0.3,0,0.4,0c0.2,0,0.3-0.1,0.5-0.2c0.2-0.1,0.4-0.3,0.5-0.5c0.2-0.2,0.3-0.4,0.5-0.7c0.1-0.1,0.1-0.2,0.1-0.3c0-0.1,0-0.2,0-0.2
	c-0.1-0.1-0.1-0.2-0.1-0.3c-0.1-0.6,0.3-1.2,1.1-1c0.1,0,0.1,0,0.2,0c0.2-0.1,0.4-0.1,0.7-0.1c0.2,0,0.3,0.1,0.4,0.2
	c0.4,0.3,0.4,0.9,0.1,1.2c-0.1,0.2-0.3,0.3-0.4,0.4c-0.2,0.1-0.3,0.2-0.4,0.4c-0.1,0.1-0.1,0.2-0.2,0.4c0,0.1,0,0.2,0.1,0.2
	c0,0,0.1,0,0.1,0.1c0.1,0.1,0.3,0.1,0.4,0.2c0.3,0.1,0.5,0.2,0.8,0.2c0.1,0,0.1,0,0.2,0"/>
<g>
	<path class="st0" d="M-111.1,416v6.6l2-2h1.9l-2.7,2.6l2.9,3.6h-1.9l-2.1-2.6l-0.2,0.2v2.4h-1.4V416H-111.1z"/>
	<path class="st0" d="M-106.2,418c0-0.3,0.1-0.5,0.3-0.7c0.2-0.2,0.4-0.3,0.7-0.3c0.3,0,0.5,0.1,0.7,0.3c0.2,0.2,0.3,0.4,0.3,0.7
		c0,0.3-0.1,0.5-0.3,0.7c-0.3,0.1-0.5,0.2-0.8,0.2s-0.5-0.1-0.7-0.3C-106.1,418.5-106.2,418.2-106.2,418z M-104.6,420.6v6.2h-1.4
		v-6.2H-104.6z"/>
	<path class="st0" d="M-103,420.6h1.4v0.6c0.3-0.3,0.5-0.5,0.7-0.6s0.5-0.2,0.7-0.2c0.4,0,0.8,0.1,1.2,0.4l-0.7,1.3
		c-0.3-0.2-0.5-0.3-0.8-0.3c-0.8,0-1.2,0.6-1.2,1.8v3.2h-1.3V420.6z"/>
	<path class="st0" d="M-98.1,418c0-0.3,0.1-0.5,0.3-0.7c0.2-0.2,0.4-0.3,0.7-0.3c0.3,0,0.5,0.1,0.7,0.3c0.2,0.2,0.3,0.4,0.3,0.7
		c0,0.3-0.1,0.5-0.3,0.7c-0.2,0.2-0.4,0.3-0.7,0.3c-0.3,0-0.5-0.1-0.7-0.3C-98,418.5-98.1,418.2-98.1,418z M-96.5,420.6v6.2h-1.4
		v-6.2H-96.5z"/>
	<path class="st0" d="M-94.9,420.6h1.4v0.6c0.5-0.5,1.1-0.7,1.7-0.7c0.7,0,1.3,0.2,1.7,0.7c0.3,0.4,0.5,1,0.5,1.9v3.8H-91v-3.5
		c0-0.6-0.1-1-0.3-1.3c-0.2-0.2-0.5-0.4-0.9-0.4c-0.5,0-0.8,0.2-1,0.5s-0.3,0.9-0.3,1.6v3h-1.4L-94.9,420.6L-94.9,420.6z"/>
	<path class="st0" d="M-84.2,421.6l-1.2,0.6c-0.2-0.4-0.4-0.6-0.7-0.6c-0.1,0-0.2,0-0.3,0.1c-0.1,0.1-0.1,0.2-0.1,0.3
		c0,0.2,0.3,0.5,0.8,0.7c0.8,0.3,1.3,0.6,1.5,0.9c0.3,0.3,0.4,0.6,0.4,1.1c0,0.6-0.2,1.1-0.7,1.5c-0.4,0.4-1,0.6-1.6,0.6
		c-1,0-1.8-0.5-2.2-1.5l1.3-0.4c0.2,0.3,0.3,0.5,0.4,0.6c0.2,0.2,0.4,0.2,0.6,0.2c0.5,0,0.7-0.2,0.7-0.7c0-0.3-0.2-0.5-0.6-0.7
		c-0.1-0.1-0.3-0.1-0.4-0.2s-0.3-0.1-0.4-0.2c-0.4-0.2-0.7-0.4-0.9-0.6c-0.2-0.3-0.3-0.6-0.3-1c0-0.5,0.2-1,0.6-1.3
		c0.4-0.4,0.8-0.5,1.4-0.5C-85.2,420.4-84.6,420.8-84.2,421.6z"/>
	<path class="st0" d="M-77.9,420.6h1.4v6.2h-1.4v-0.7c-0.6,0.6-1.2,0.8-1.9,0.8c-0.9,0-1.6-0.3-2.1-0.9c-0.6-0.6-0.8-1.4-0.8-2.4
		c0-0.9,0.3-1.7,0.8-2.3c0.6-0.6,1.3-0.9,2.1-0.9c0.7,0,1.4,0.3,2,0.9L-77.9,420.6L-77.9,420.6z M-81.3,423.7c0,0.6,0.2,1.1,0.5,1.5
		s0.7,0.6,1.2,0.6s1-0.2,1.3-0.6s0.5-0.9,0.5-1.4c0-0.6-0.2-1.1-0.5-1.4c-0.3-0.4-0.8-0.6-1.3-0.6s-0.9,0.2-1.2,0.6
		C-81.1,422.6-81.3,423.1-81.3,423.7z"/>
	<path class="st0" d="M-74.7,420.6h1.4v0.6c0.5-0.5,1.1-0.7,1.7-0.7c0.7,0,1.3,0.2,1.7,0.7c0.3,0.4,0.5,1,0.5,1.9v3.8h-1.4v-3.5
		c0-0.6-0.1-1-0.3-1.3c-0.2-0.2-0.5-0.4-0.9-0.4c-0.5,0-0.8,0.2-1,0.5s-0.3,0.9-0.3,1.6v3h-1.4L-74.7,420.6L-74.7,420.6z"/>
	<path class="st0" d="M-67.9,426.1c0-0.2,0.1-0.4,0.3-0.6c0.2-0.2,0.4-0.3,0.6-0.3s0.5,0.1,0.6,0.3c0.2,0.2,0.3,0.4,0.3,0.6
		c0,0.2-0.1,0.5-0.3,0.6c-0.2,0.2-0.4,0.3-0.6,0.3c-0.3,0-0.5-0.1-0.6-0.3C-67.9,426.6-67.9,426.3-67.9,426.1z"/>
	<path class="st0" d="M-65.2,423.6c0-0.9,0.3-1.7,1-2.3c0.6-0.6,1.4-0.9,2.4-0.9c0.9,0,1.7,0.3,2.4,1c0.6,0.6,1,1.4,1,2.3
		s-0.3,1.7-1,2.3c-0.6,0.6-1.4,0.9-2.4,0.9c-0.9,0-1.7-0.3-2.3-1C-64.9,425.4-65.2,424.6-65.2,423.6z M-63.8,423.7
		c0,0.6,0.2,1.1,0.5,1.5s0.8,0.6,1.3,0.6c0.6,0,1-0.2,1.4-0.5c0.3-0.4,0.5-0.8,0.5-1.5c0-0.6-0.2-1.1-0.5-1.5s-0.8-0.6-1.4-0.6
		c-0.6,0-1,0.2-1.3,0.6C-63.6,422.6-63.8,423.1-63.8,423.7z"/>
	<path class="st0" d="M-57.4,420.6h1.4v0.6c0.3-0.3,0.5-0.5,0.7-0.6s0.5-0.2,0.7-0.2c0.4,0,0.8,0.1,1.2,0.4l-0.7,1.3
		c-0.3-0.2-0.5-0.3-0.8-0.3c-0.8,0-1.2,0.6-1.2,1.8v3.2h-1.4v-6.2H-57.4z"/>
	<path class="st0" d="M-46.7,426.7c0,0.3,0,0.6,0,0.8c0,0.2,0,0.4-0.1,0.6c-0.1,0.5-0.3,0.9-0.6,1.2c-0.6,0.6-1.3,1-2.3,1
		c-0.8,0-1.5-0.2-2.1-0.7s-0.9-1.1-1-1.9h1.4c0.1,0.3,0.1,0.5,0.3,0.7c0.3,0.4,0.7,0.6,1.3,0.6c1.1,0,1.6-0.6,1.6-1.9v-0.9
		c-0.6,0.6-1.2,0.9-2,0.9s-1.5-0.3-2.1-0.9c-0.5-0.6-0.8-1.4-0.8-2.3c0-0.9,0.3-1.7,0.8-2.3c0.5-0.7,1.3-1,2.2-1
		c0.8,0,1.4,0.3,2,0.9v-0.7h1.4L-46.7,426.7L-46.7,426.7z M-48.1,423.7c0-0.6-0.2-1.1-0.5-1.4c-0.3-0.4-0.7-0.6-1.3-0.6
		c-0.5,0-1,0.2-1.3,0.6s-0.4,0.8-0.4,1.4s0.1,1,0.4,1.4c0.3,0.4,0.7,0.6,1.3,0.6s1-0.2,1.3-0.6S-48.1,424.3-48.1,423.7z"/>
</g>
<g>
	<path class="st0" d="M-187.5,426.8l1.7-8.9l2.8,6.4l2.9-6.4l1.6,8.9h-1.3l-0.8-5l-2.5,5.4l-2.4-5.4l-0.9,5H-187.5z"/>
	<path class="st0" d="M-173,421.6h1.2v5.2h-1.2v-0.5c-0.5,0.5-1,0.7-1.6,0.7c-0.7,0-1.3-0.3-1.8-0.8c-0.5-0.5-0.7-1.2-0.7-2
		c0-0.8,0.2-1.4,0.7-2c0.5-0.5,1.1-0.8,1.8-0.8c0.6,0,1.2,0.3,1.6,0.8V421.6z M-175.8,424.2c0,0.5,0.1,0.9,0.4,1.2
		c0.3,0.3,0.6,0.5,1,0.5c0.4,0,0.8-0.2,1.1-0.5c0.3-0.3,0.4-0.7,0.4-1.2c0-0.5-0.1-0.9-0.4-1.2c-0.3-0.3-0.6-0.5-1.1-0.5
		c-0.4,0-0.8,0.2-1,0.5C-175.7,423.3-175.8,423.7-175.8,424.2z"/>
	<path class="st0" d="M-166.4,417.7h1.2v9.1h-1.2v-0.5c-0.5,0.5-1,0.7-1.6,0.7c-0.7,0-1.3-0.3-1.8-0.8c-0.5-0.5-0.7-1.2-0.7-2
		c0-0.8,0.2-1.4,0.7-2c0.5-0.5,1.1-0.8,1.8-0.8c0.6,0,1.2,0.3,1.6,0.8V417.7z M-169.2,424.2c0,0.5,0.1,0.9,0.4,1.2
		c0.3,0.3,0.6,0.5,1,0.5c0.4,0,0.8-0.2,1.1-0.5c0.3-0.3,0.4-0.7,0.4-1.2c0-0.5-0.1-0.9-0.4-1.2c-0.3-0.3-0.6-0.5-1.1-0.5
		c-0.4,0-0.8,0.2-1,0.5C-169.1,423.3-169.2,423.7-169.2,424.2z"/>
	<path class="st0" d="M-158.9,424.5h-3.7c0,0.4,0.2,0.8,0.4,1c0.2,0.2,0.6,0.4,1,0.4c0.3,0,0.5-0.1,0.7-0.2c0.2-0.1,0.4-0.4,0.7-0.8
		l1,0.6c-0.2,0.3-0.3,0.5-0.5,0.7s-0.4,0.3-0.6,0.5c-0.2,0.1-0.4,0.2-0.6,0.3s-0.5,0.1-0.8,0.1c-0.8,0-1.4-0.3-1.9-0.8
		c-0.5-0.5-0.7-1.2-0.7-2c0-0.8,0.2-1.5,0.7-2c0.5-0.5,1.1-0.8,1.8-0.8c0.8,0,1.4,0.2,1.8,0.7c0.4,0.5,0.7,1.2,0.7,2L-158.9,424.5z
		 M-160.1,423.5c-0.2-0.6-0.6-1-1.2-1c-0.1,0-0.3,0-0.4,0.1s-0.2,0.1-0.4,0.2c-0.1,0.1-0.2,0.2-0.3,0.3c-0.1,0.1-0.1,0.3-0.2,0.4
		H-160.1z"/>
	<path class="st0" d="M-152.9,417.7v4.4c0.5-0.5,1-0.8,1.6-0.8c0.7,0,1.3,0.3,1.8,0.8c0.5,0.5,0.7,1.2,0.7,2c0,0.8-0.2,1.5-0.7,2
		c-0.5,0.5-1.1,0.8-1.8,0.8c-0.6,0-1.1-0.2-1.6-0.7v0.5h-1.2v-9.1H-152.9z M-150.1,424.2c0-0.5-0.1-0.9-0.4-1.2
		c-0.3-0.3-0.6-0.5-1-0.5c-0.4,0-0.8,0.2-1.1,0.5c-0.3,0.3-0.4,0.7-0.4,1.2c0,0.5,0.1,0.9,0.4,1.2c0.3,0.3,0.6,0.5,1.1,0.5
		c0.4,0,0.8-0.2,1-0.5C-150.2,425.1-150.1,424.7-150.1,424.2z"/>
	<path class="st0" d="M-146.1,425.8l-2.4-4.3h1.4l1.6,3l1.5-3h1.4l-4.2,8.1h-1.4L-146.1,425.8z"/>
</g>
<g>
	<path class="st0" d="M-38.7,421.6l1.4,3l1.5-3.5l1.5,3.5l1.4-3h1.4l-2.7,5.6l-1.5-3.4l-1.5,3.4l-2.7-5.6H-38.7z"/>
	<path class="st0" d="M-31.1,419.4c0-0.2,0.1-0.4,0.2-0.5c0.2-0.2,0.3-0.2,0.6-0.2c0.2,0,0.4,0.1,0.6,0.2c0.2,0.2,0.2,0.3,0.2,0.6
		s-0.1,0.4-0.2,0.6c-0.2,0.2-0.3,0.2-0.6,0.2c-0.2,0-0.4-0.1-0.6-0.2C-31,419.8-31.1,419.6-31.1,419.4z M-29.7,421.6v5.2h-1.2v-5.2
		H-29.7z"/>
	<path class="st0" d="M-26.9,422.7v4.1h-1.2v-4.1h-0.5v-1.1h0.5v-1.9h1.2v1.9h0.9v1.1H-26.9z"/>
	<path class="st0" d="M-24.9,417.7h1.2v4.3c0.4-0.4,0.9-0.6,1.4-0.6c0.6,0,1.1,0.2,1.4,0.6c0.3,0.3,0.5,0.9,0.5,1.6v3.2h-1.2v-3.1
		c0-0.4-0.1-0.7-0.2-0.9c-0.1-0.2-0.4-0.3-0.7-0.3c-0.4,0-0.7,0.1-0.9,0.4c-0.2,0.3-0.3,0.7-0.3,1.4v2.5h-1.2V417.7z"/>
	<path class="st0" d="M-10.7,420.1c0.4-1.2,1.3-1.7,2.3-1.7c1.2,0,2.1,1,2.1,2.2c0,1.5-0.8,2.6-1.6,3.6c-0.8,1-2.4,2.6-2.8,3h0
		c-0.4-0.4-2-2.1-2.8-3c-0.8-1-1.6-2.1-1.6-3.6c0-1.2,1-2.2,2.1-2.2C-12,418.4-11.1,419-10.7,420.1L-10.7,420.1z"/>
</g>
</svg>
