<?xml version="1.0" encoding="utf-8"?>
<!-- Generator: Adobe Illustrator 18.1.1, SVG Export Plug-In . SVG Version: 6.00 Build 0)  -->
<!DOCTYPE svg PUBLIC "-//W3C//DTD SVG 1.1//EN" "http://www.w3.org/Graphics/SVG/1.1/DTD/svg11.dtd">
<svg version="1.1" id="レイヤー_1" xmlns="http://www.w3.org/2000/svg" xmlns:xlink="http://www.w3.org/1999/xlink" x="0px"
	 y="0px" viewBox="0 0 200 32" enable-background="new 0 0 200 32" xml:space="preserve">
<path opacity="0.2" enable-background="new    " d="M66.7,26c-5.2,0-9.4-4.2-9.4-9.4c0-5.2,4.2-9.4,9.4-9.4c5.2,0,9.4,4.2,9.4,9.4
	C76.1,21.7,71.9,26,66.7,26z M70.8,13.3c0.1,0,0.2,0,0.3,0c0.3,0,0.5,0,0.8,0c0.1,0,0.1,0.1,0.2,0.1c0,0.1,0,0.2,0,0.3
	c0,0.1,0,0.1,0,0.2c0.2,0.3,0.1,0.5-0.2,0.5c0.1,0.2,0.1,0.2-0.1,0.5c0.2,0,0.3,0.1,0.5,0.2c0,0.2-0.1,0.4-0.1,0.6
	c0,0,0.1,0,0.1,0.1c0.2,0.1,0.3,0.1,0.5,0.2c0.1,0,0.1,0.1,0.2,0.1c0,0.2,0,0.5-0.1,0.7c0,0.1,0,0.1,0.1,0.2
	c0.1,0.1,0.2,0.2,0.3,0.3c0.1,0.1,0.2,0.1,0.4,0.2c0,0.3-0.1,0.5-0.1,0.8c0,0.1,0,0.2,0.1,0.3c0.1,0.1,0.3,0.2,0.4,0.3
	c0,0,0.1,0,0.1,0.1c0.1-0.2,0.1-0.4,0.2-0.6c0.1-0.5,0.2-1.1,0.2-1.6c0-0.4,0-0.8-0.1-1.2c0-0.3-0.1-0.5-0.1-0.8
	c-0.2-0.7-0.5-1.3-0.8-1.9c-0.2-0.3-0.3-0.5-0.5-0.8c-0.3-0.4-0.7-0.8-1.1-1.2c-0.2-0.2-0.4-0.4-0.6-0.5c-0.6-0.4-1.2-0.7-1.9-1
	C69,9.1,68.7,9,68.4,9c-0.5-0.1-1-0.2-1.6-0.2c-0.4,0-0.9,0-1.3,0.1c-0.3,0-0.5,0.1-0.8,0.1c-0.6,0.2-1.3,0.4-1.8,0.8
	c-0.3,0.1-0.5,0.3-0.8,0.5c-0.5,0.4-1,0.8-1.4,1.3c-0.1,0.2-0.3,0.3-0.4,0.5c-0.4,0.5-0.6,1-0.9,1.6c-0.1,0.4-0.3,0.7-0.4,1.1
	C59,15.3,59,15.8,59,16.4c0,0.4,0,0.8,0.1,1.3c0,0.3,0.1,0.6,0.1,0.8c0.2,0.7,0.5,1.3,0.8,1.9c0.2,0.3,0.3,0.5,0.5,0.8
	c0.3,0.4,0.7,0.8,1.1,1.2c0.2,0.2,0.4,0.3,0.6,0.5c0.5,0.4,1,0.6,1.6,0.9c0.4,0.1,0.7,0.3,1.1,0.4c0.5,0.1,1,0.1,1.6,0.2
	c0.4,0,0.8,0,1.3-0.1c0.3,0,0.6-0.1,0.9-0.2c0.4-0.1,0.7-0.3,1.1-0.4c0.2-0.1,0.4-0.2,0.6-0.3c0-0.1,0-0.2,0-0.2
	c0.1-0.2,0-0.3-0.1-0.5c0,0,0-0.1,0-0.1c0-0.1,0-0.2,0-0.2c0-0.2,0-0.4-0.1-0.5c-0.1-0.1-0.1-0.2-0.2-0.4c0-0.1-0.1-0.2-0.1-0.2
	c-0.1-0.2-0.1-0.3-0.2-0.5c0,0,0-0.1,0-0.1c-0.1-0.1-0.2-0.3-0.2-0.5c0-0.1-0.1-0.2-0.2-0.2c-0.2-0.1-0.3-0.2-0.3-0.4
	c0-0.2-0.1-0.4-0.2-0.5c-0.1,0-0.1-0.1-0.1-0.2c-0.1-0.1-0.1-0.1-0.2,0c-0.3,0.2-0.5,0.3-0.8,0.5c-0.5,0.2-0.9,0.4-1.4,0.3
	c-0.4,0-0.7,0-1.1,0c-0.6,0-1.2,0.2-1.8,0.5c-0.3,0.2-0.5,0.3-0.8,0.5c-0.1,0.1-0.2,0.1-0.3,0.1c-0.2,0-0.4,0-0.7-0.1
	c-0.1,0-0.1,0-0.2,0c-0.2,0.1-0.5,0.1-0.7,0c-0.2-0.1-0.2-0.2-0.2-0.4c0,0,0-0.1,0-0.1c0-0.1,0-0.1,0-0.2c0-0.3,0-0.5,0.1-0.8
	c0.1-0.4,0.3-0.7,0.6-0.9c0.1-0.1,0.3-0.2,0.4-0.3c0.2-0.1,0.4-0.3,0.5-0.6c0.2-0.6,0.6-1.1,1.1-1.4c0.2-0.2,0.5-0.3,0.7-0.5
	c0.2-0.1,0.4-0.3,0.5-0.6c0-0.1,0-0.1,0.1-0.2c0.1-0.2,0.2-0.4,0.2-0.7c0,0,0-0.1,0-0.1c0.1-0.2,0.3-0.4,0.5-0.5
	c0.1,0,0.1-0.1,0.2-0.1c0.1,0,0.3,0,0.4,0c0.2,0,0.3-0.1,0.5-0.2c0.2-0.1,0.4-0.3,0.5-0.5c0.2-0.2,0.3-0.4,0.5-0.7
	c0.1-0.1,0.1-0.2,0.1-0.3c0-0.1,0-0.2,0-0.2c-0.1-0.1-0.1-0.2-0.1-0.3c-0.1-0.6,0.3-1.2,1.1-1c0.1,0,0.1,0,0.2,0
	c0.2-0.1,0.4-0.1,0.7-0.1c0.2,0,0.3,0.1,0.4,0.2c0.4,0.3,0.4,0.9,0.1,1.2c-0.1,0.2-0.3,0.3-0.4,0.4c-0.2,0.1-0.3,0.2-0.4,0.4
	c-0.1,0.1-0.1,0.2-0.2,0.4c0,0.1,0,0.2,0.1,0.2c0,0,0.1,0,0.1,0.1c0.1,0.1,0.3,0.1,0.4,0.2c0.3,0.1,0.5,0.2,0.8,0.2
	c0.1,0,0.1,0,0.2,0"/>
<g opacity="0.2">
	<path d="M81.9,10.8v6.6l2-2h1.9L83.2,18l2.9,3.6h-1.9L82.1,19l-0.2,0.2v2.4h-1.4V10.8H81.9z"/>
	<path d="M86.8,12.8c0-0.3,0.1-0.5,0.3-0.7c0.2-0.2,0.4-0.3,0.7-0.3c0.3,0,0.5,0.1,0.7,0.3c0.2,0.2,0.3,0.4,0.3,0.7
		c0,0.3-0.1,0.5-0.3,0.7c-0.2,0.2-0.4,0.3-0.7,0.3s-0.5-0.1-0.7-0.3C86.9,13.3,86.8,13,86.8,12.8z M88.4,15.4v6.2H87v-6.2H88.4z"/>
	<path d="M90,15.4h1.4v0.6c0.3-0.3,0.5-0.5,0.7-0.6c0.2-0.1,0.5-0.2,0.7-0.2c0.4,0,0.8,0.1,1.2,0.4l-0.7,1.3
		c-0.3-0.2-0.5-0.3-0.8-0.3c-0.8,0-1.2,0.6-1.2,1.8v3.2H90V15.4z"/>
	<path d="M94.9,12.8c0-0.3,0.1-0.5,0.3-0.7c0.2-0.2,0.4-0.3,0.7-0.3c0.3,0,0.5,0.1,0.7,0.3c0.2,0.2,0.3,0.4,0.3,0.7
		c0,0.3-0.1,0.5-0.3,0.7c-0.2,0.2-0.4,0.3-0.7,0.3c-0.3,0-0.5-0.1-0.7-0.3C95,13.3,94.9,13,94.9,12.8z M96.5,15.4v6.2h-1.4v-6.2
		H96.5z"/>
	<path d="M98.1,15.4h1.4v0.6c0.5-0.5,1.1-0.7,1.7-0.7c0.7,0,1.3,0.2,1.7,0.7c0.3,0.4,0.5,1,0.5,1.9v3.8h-1.4v-3.5
		c0-0.6-0.1-1-0.3-1.3c-0.2-0.2-0.5-0.4-0.9-0.4c-0.5,0-0.8,0.2-1,0.5c-0.2,0.3-0.3,0.9-0.3,1.6v3h-1.4L98.1,15.4L98.1,15.4z"/>
	<path d="M108.8,16.4l-1.2,0.6c-0.2-0.4-0.4-0.6-0.7-0.6c-0.1,0-0.2,0-0.3,0.1c-0.1,0.1-0.1,0.2-0.1,0.3c0,0.2,0.3,0.5,0.8,0.7
		c0.8,0.3,1.3,0.6,1.5,0.9c0.3,0.3,0.4,0.6,0.4,1.1c0,0.6-0.2,1.1-0.7,1.5c-0.4,0.4-1,0.6-1.6,0.6c-1,0-1.8-0.5-2.2-1.5l1.2-0.6
		c0.2,0.3,0.3,0.5,0.4,0.6c0.2,0.2,0.4,0.2,0.6,0.2c0.5,0,0.7-0.2,0.7-0.7c0-0.3-0.2-0.5-0.6-0.7c-0.1-0.1-0.3-0.1-0.4-0.2
		c-0.1-0.1-0.3-0.1-0.4-0.2c-0.4-0.2-0.7-0.4-0.9-0.6c-0.2-0.3-0.3-0.6-0.3-1c0-0.5,0.2-1,0.6-1.3c0.4-0.4,0.8-0.5,1.4-0.5
		C107.8,15.2,108.4,15.6,108.8,16.4z"/>
	<path d="M115.1,15.4h1.4v6.2h-1.4v-0.7c-0.6,0.6-1.2,0.8-1.9,0.8c-0.9,0-1.6-0.3-2.1-0.9c-0.6-0.6-0.8-1.4-0.8-2.4
		c0-0.9,0.3-1.7,0.8-2.3c0.6-0.6,1.3-0.9,2.1-0.9c0.7,0,1.4,0.3,2,0.9V15.4z M111.7,18.5c0,0.6,0.2,1.1,0.5,1.5
		c0.3,0.4,0.7,0.6,1.2,0.6c0.5,0,1-0.2,1.3-0.6c0.3-0.4,0.5-0.9,0.5-1.4c0-0.6-0.2-1.1-0.5-1.4c-0.3-0.4-0.8-0.6-1.3-0.6
		c-0.5,0-0.9,0.2-1.2,0.6C111.9,17.4,111.7,17.9,111.7,18.5z"/>
	<path d="M118.3,15.4h1.4v0.6c0.5-0.5,1.1-0.7,1.7-0.7c0.7,0,1.3,0.2,1.7,0.7c0.3,0.4,0.5,1,0.5,1.9v3.8h-1.4v-3.5
		c0-0.6-0.1-1-0.3-1.3c-0.2-0.2-0.5-0.4-0.9-0.4c-0.5,0-0.8,0.2-1,0.5c-0.2,0.3-0.3,0.9-0.3,1.6v3h-1.4L118.3,15.4L118.3,15.4z"/>
	<path d="M125.1,20.9c0-0.2,0.1-0.4,0.3-0.6c0.2-0.2,0.4-0.3,0.6-0.3c0.2,0,0.5,0.1,0.6,0.3c0.2,0.2,0.3,0.4,0.3,0.6
		c0,0.2-0.1,0.5-0.3,0.6c-0.2,0.2-0.4,0.3-0.6,0.3c-0.3,0-0.5-0.1-0.6-0.3C125.1,21.4,125.1,21.1,125.1,20.9z"/>
	<path d="M127.8,18.4c0-0.9,0.3-1.7,1-2.3c0.6-0.6,1.4-0.9,2.4-0.9c0.9,0,1.7,0.3,2.4,1c0.6,0.6,1,1.4,1,2.3c0,0.9-0.3,1.7-1,2.3
		c-0.6,0.6-1.4,0.9-2.4,0.9c-0.9,0-1.7-0.3-2.3-1C128.1,20.2,127.8,19.4,127.8,18.4z M129.2,18.5c0,0.6,0.2,1.1,0.5,1.5
		c0.3,0.4,0.8,0.6,1.3,0.6c0.6,0,1-0.2,1.4-0.5c0.3-0.4,0.5-0.8,0.5-1.5c0-0.6-0.2-1.1-0.5-1.5c-0.3-0.4-0.8-0.6-1.4-0.6
		c-0.6,0-1,0.2-1.3,0.6C129.4,17.4,129.2,17.9,129.2,18.5z"/>
	<path d="M135.6,15.4h1.4v0.6c0.3-0.3,0.5-0.5,0.7-0.6c0.2-0.1,0.5-0.2,0.7-0.2c0.4,0,0.8,0.1,1.2,0.4l-0.7,1.3
		c-0.3-0.2-0.5-0.3-0.8-0.3c-0.8,0-1.2,0.6-1.2,1.8v3.2h-1.4V15.4z"/>
	<path d="M146.3,21.5c0,0.3,0,0.6,0,0.8c0,0.2,0,0.4-0.1,0.6c-0.1,0.5-0.3,0.9-0.6,1.2c-0.6,0.6-1.3,1-2.3,1c-0.8,0-1.5-0.2-2.1-0.7
		c-0.6-0.5-0.9-1.1-1-1.9h1.4c0.1,0.3,0.1,0.5,0.3,0.7c0.3,0.4,0.7,0.6,1.3,0.6c1.1,0,1.6-0.6,1.6-1.9v-0.9c-0.6,0.6-1.2,0.9-2,0.9
		c-0.8,0-1.5-0.3-2.1-0.9c-0.5-0.6-0.8-1.4-0.8-2.3c0-0.9,0.3-1.7,0.8-2.3c0.5-0.7,1.3-1,2.2-1c0.8,0,1.4,0.3,2,0.9v-0.7h1.4
		L146.3,21.5L146.3,21.5z M144.9,18.5c0-0.6-0.2-1.1-0.5-1.4c-0.3-0.4-0.7-0.6-1.3-0.6c-0.5,0-1,0.2-1.3,0.6
		c-0.3,0.4-0.4,0.8-0.4,1.4c0,0.6,0.1,1,0.4,1.4c0.3,0.4,0.7,0.6,1.3,0.6c0.6,0,1-0.2,1.3-0.6C144.7,19.5,144.9,19.1,144.9,18.5z"/>
</g>
<path fill="#FFFFFF" d="M66.7,26.2c-5.2,0-9.4-4.2-9.4-9.4c0-5.2,4.2-9.4,9.4-9.4c5.2,0,9.4,4.2,9.4,9.4
	C76.1,22,71.9,26.3,66.7,26.2z M70.8,13.6c0.1,0,0.2,0,0.3,0c0.3,0,0.5,0,0.8,0c0.1,0,0.1,0.1,0.2,0.1c0,0.1,0,0.2,0,0.3
	c0,0.1,0,0.1,0,0.2c0.2,0.3,0.1,0.5-0.2,0.5c0.1,0.2,0.1,0.2-0.1,0.5c0.2,0,0.3,0.1,0.5,0.2c0,0.2-0.1,0.4-0.1,0.6
	c0,0,0.1,0,0.1,0.1c0.2,0.1,0.3,0.1,0.5,0.2c0.1,0,0.1,0.1,0.2,0.1c0,0.2,0,0.5-0.1,0.7c0,0.1,0,0.1,0.1,0.2
	c0.1,0.1,0.2,0.2,0.3,0.3c0.1,0.1,0.2,0.1,0.4,0.2c0,0.3-0.1,0.5-0.1,0.8c0,0.1,0,0.2,0.1,0.3c0.1,0.1,0.3,0.2,0.4,0.3
	c0,0,0.1,0,0.1,0.1c0.1-0.2,0.1-0.4,0.2-0.6c0.1-0.5,0.2-1.1,0.2-1.6c0-0.4,0-0.8-0.1-1.2c0-0.3-0.1-0.5-0.1-0.8
	c-0.2-0.7-0.5-1.3-0.8-1.9c-0.2-0.3-0.3-0.5-0.5-0.8c-0.3-0.4-0.7-0.8-1.1-1.2c-0.2-0.2-0.4-0.4-0.6-0.5c-0.6-0.4-1.2-0.7-1.9-1
	c-0.2-0.1-0.5-0.2-0.8-0.2c-0.5-0.1-1-0.2-1.6-0.2c-0.4,0-0.9,0-1.3,0.1c-0.3,0-0.5,0.1-0.8,0.1c-0.6,0.2-1.3,0.4-1.8,0.8
	c-0.3,0.1-0.5,0.3-0.8,0.5c-0.5,0.4-1,0.8-1.4,1.3c-0.1,0.2-0.3,0.3-0.4,0.5c-0.4,0.5-0.6,1-0.9,1.6c-0.1,0.4-0.3,0.7-0.4,1.1
	C59,15.6,59,16.1,59,16.7c0,0.4,0,0.8,0.1,1.3c0,0.3,0.1,0.6,0.1,0.8c0.2,0.7,0.5,1.3,0.8,1.9c0.2,0.3,0.3,0.5,0.5,0.8
	c0.3,0.4,0.7,0.8,1.1,1.2c0.2,0.2,0.4,0.3,0.6,0.5c0.5,0.4,1,0.6,1.6,0.9c0.4,0.1,0.7,0.3,1.1,0.4c0.5,0.1,1,0.1,1.6,0.2
	c0.4,0,0.8,0,1.3-0.1c0.3,0,0.6-0.1,0.9-0.2c0.4-0.1,0.7-0.3,1.1-0.4c0.2-0.1,0.4-0.2,0.6-0.3c0-0.1,0-0.2,0-0.2
	c0.1-0.2,0-0.3-0.1-0.5c0,0,0-0.1,0-0.1c0-0.1,0-0.2,0-0.2c0-0.2,0-0.4-0.1-0.5c-0.1-0.1-0.1-0.2-0.2-0.4c0-0.1-0.1-0.2-0.1-0.2
	c-0.1-0.2-0.1-0.3-0.2-0.5c0,0,0-0.1,0-0.1c-0.1-0.1-0.2-0.3-0.2-0.5c0-0.1-0.1-0.2-0.2-0.2c-0.2-0.1-0.3-0.2-0.3-0.4
	c0-0.2-0.1-0.4-0.2-0.5c-0.1,0-0.1-0.1-0.1-0.2c-0.1-0.1-0.1-0.1-0.2,0c-0.3,0.2-0.5,0.3-0.8,0.5c-0.5,0.2-0.9,0.4-1.4,0.3
	c-0.4,0-0.7,0-1.1,0c-0.6,0-1.2,0.2-1.8,0.5c-0.3,0.2-0.5,0.3-0.8,0.5c-0.1,0.1-0.2,0.1-0.3,0.1c-0.2,0-0.4,0-0.7-0.1
	c-0.1,0-0.1,0-0.2,0c-0.2,0.1-0.5,0.1-0.7,0c-0.2-0.1-0.2-0.2-0.2-0.4c0,0,0-0.1,0-0.1c0-0.1,0-0.1,0-0.2c0-0.3,0-0.5,0.1-0.8
	c0.1-0.4,0.3-0.7,0.6-0.9c0.1-0.1,0.3-0.2,0.4-0.3c0.2-0.1,0.4-0.3,0.5-0.6c0.2-0.6,0.6-1.1,1.1-1.4c0.2-0.2,0.5-0.3,0.7-0.5
	c0.2-0.1,0.4-0.3,0.5-0.6c0-0.1,0-0.1,0.1-0.2c0.1-0.2,0.2-0.4,0.2-0.7c0,0,0-0.1,0-0.1c0.1-0.2,0.3-0.4,0.5-0.5
	c0.1,0,0.1-0.1,0.2-0.1c0.1,0,0.3,0,0.4,0c0.2,0,0.3-0.1,0.5-0.2c0.2-0.1,0.4-0.3,0.5-0.5c0.2-0.2,0.3-0.4,0.5-0.7
	c0.1-0.1,0.1-0.2,0.1-0.3c0-0.1,0-0.2,0-0.2c-0.1-0.1-0.1-0.2-0.1-0.3c-0.1-0.6,0.3-1.2,1.1-1c0.1,0,0.1,0,0.2,0
	c0.2-0.1,0.4-0.1,0.7-0.1c0.2,0,0.3,0.1,0.4,0.2c0.4,0.3,0.4,0.9,0.1,1.2c-0.1,0.2-0.3,0.3-0.4,0.4c-0.2,0.1-0.3,0.2-0.4,0.4
	c-0.1,0.1-0.1,0.2-0.2,0.4c0,0.1,0,0.2,0.1,0.2c0,0,0.1,0,0.1,0.1c0.1,0.1,0.3,0.1,0.4,0.2c0.3,0.1,0.5,0.2,0.8,0.2
	c0.1,0,0.1,0,0.2,0"/>
<g>
	<path fill="#FFFFFF" d="M81.9,11.1v6.6l2-2h1.9l-2.7,2.6l2.9,3.6h-1.9l-2.1-2.6l-0.2,0.2v2.4h-1.4V11.1H81.9z"/>
	<path fill="#FFFFFF" d="M86.8,13.1c0-0.3,0.1-0.5,0.3-0.7c0.2-0.2,0.4-0.3,0.7-0.3c0.3,0,0.5,0.1,0.7,0.3c0.2,0.2,0.3,0.4,0.3,0.7
		c0,0.3-0.1,0.5-0.3,0.7C88.2,13.9,88,14,87.7,14s-0.5-0.1-0.7-0.3C86.9,13.6,86.8,13.3,86.8,13.1z M88.4,15.7v6.2H87v-6.2H88.4z"/>
	<path fill="#FFFFFF" d="M90,15.7h1.4v0.6c0.3-0.3,0.5-0.5,0.7-0.6c0.2-0.1,0.5-0.2,0.7-0.2c0.4,0,0.8,0.1,1.2,0.4l-0.7,1.3
		c-0.3-0.2-0.5-0.3-0.8-0.3c-0.8,0-1.2,0.6-1.2,1.8v3.2H90V15.7z"/>
	<path fill="#FFFFFF" d="M94.9,13.1c0-0.3,0.1-0.5,0.3-0.7c0.2-0.2,0.4-0.3,0.7-0.3c0.3,0,0.5,0.1,0.7,0.3c0.2,0.2,0.3,0.4,0.3,0.7
		c0,0.3-0.1,0.5-0.3,0.7c-0.2,0.2-0.4,0.3-0.7,0.3c-0.3,0-0.5-0.1-0.7-0.3C95,13.6,94.9,13.3,94.9,13.1z M96.5,15.7v6.2h-1.4v-6.2
		H96.5z"/>
	<path fill="#FFFFFF" d="M98.1,15.7h1.4v0.6c0.5-0.5,1.1-0.7,1.7-0.7c0.7,0,1.3,0.2,1.7,0.7c0.3,0.4,0.5,1,0.5,1.9v3.8h-1.4v-3.5
		c0-0.6-0.1-1-0.3-1.3c-0.2-0.2-0.5-0.4-0.9-0.4c-0.5,0-0.8,0.2-1,0.5c-0.2,0.3-0.3,0.9-0.3,1.6v3h-1.4L98.1,15.7L98.1,15.7z"/>
	<path fill="#FFFFFF" d="M108.8,16.7l-1.2,0.6c-0.2-0.4-0.4-0.6-0.7-0.6c-0.1,0-0.2,0-0.3,0.1c-0.1,0.1-0.1,0.2-0.1,0.3
		c0,0.2,0.3,0.5,0.8,0.7c0.8,0.3,1.3,0.6,1.5,0.9c0.3,0.3,0.4,0.6,0.4,1.1c0,0.6-0.2,1.1-0.7,1.5c-0.4,0.4-1,0.6-1.6,0.6
		c-1,0-1.8-0.5-2.2-1.5L106,20c0.2,0.3,0.3,0.5,0.4,0.6c0.2,0.2,0.4,0.2,0.6,0.2c0.5,0,0.7-0.2,0.7-0.7c0-0.3-0.2-0.5-0.6-0.7
		c-0.1-0.1-0.3-0.1-0.4-0.2c-0.1-0.1-0.3-0.1-0.4-0.2c-0.4-0.2-0.7-0.4-0.9-0.6c-0.2-0.3-0.3-0.6-0.3-1c0-0.5,0.2-1,0.6-1.3
		c0.4-0.4,0.8-0.5,1.4-0.5C107.8,15.5,108.4,15.9,108.8,16.7z"/>
	<path fill="#FFFFFF" d="M115.1,15.7h1.4v6.2h-1.4v-0.7c-0.6,0.6-1.2,0.8-1.9,0.8c-0.9,0-1.6-0.3-2.1-0.9c-0.6-0.6-0.8-1.4-0.8-2.4
		c0-0.9,0.3-1.7,0.8-2.3c0.6-0.6,1.3-0.9,2.1-0.9c0.7,0,1.4,0.3,2,0.9V15.7z M111.7,18.8c0,0.6,0.2,1.1,0.5,1.5
		c0.3,0.4,0.7,0.6,1.2,0.6c0.5,0,1-0.2,1.3-0.6c0.3-0.4,0.5-0.9,0.5-1.4c0-0.6-0.2-1.1-0.5-1.4c-0.3-0.4-0.8-0.6-1.3-0.6
		c-0.5,0-0.9,0.2-1.2,0.6C111.9,17.7,111.7,18.2,111.7,18.8z"/>
	<path fill="#FFFFFF" d="M118.3,15.7h1.4v0.6c0.5-0.5,1.1-0.7,1.7-0.7c0.7,0,1.3,0.2,1.7,0.7c0.3,0.4,0.5,1,0.5,1.9v3.8h-1.4v-3.5
		c0-0.6-0.1-1-0.3-1.3c-0.2-0.2-0.5-0.4-0.9-0.4c-0.5,0-0.8,0.2-1,0.5c-0.2,0.3-0.3,0.9-0.3,1.6v3h-1.4L118.3,15.7L118.3,15.7z"/>
	<path fill="#FFFFFF" d="M125.1,21.2c0-0.2,0.1-0.4,0.3-0.6c0.2-0.2,0.4-0.3,0.6-0.3c0.2,0,0.5,0.1,0.6,0.3c0.2,0.2,0.3,0.4,0.3,0.6
		c0,0.2-0.1,0.5-0.3,0.6c-0.2,0.2-0.4,0.3-0.6,0.3c-0.3,0-0.5-0.1-0.6-0.3C125.1,21.7,125.1,21.4,125.1,21.2z"/>
	<path fill="#FFFFFF" d="M127.8,18.7c0-0.9,0.3-1.7,1-2.3c0.6-0.6,1.4-0.9,2.4-0.9c0.9,0,1.7,0.3,2.4,1c0.6,0.6,1,1.4,1,2.3
		c0,0.9-0.3,1.7-1,2.3c-0.6,0.6-1.4,0.9-2.4,0.9c-0.9,0-1.7-0.3-2.3-1C128.1,20.5,127.8,19.7,127.8,18.7z M129.2,18.8
		c0,0.6,0.2,1.1,0.5,1.5c0.3,0.4,0.8,0.6,1.3,0.6c0.6,0,1-0.2,1.4-0.5c0.3-0.4,0.5-0.8,0.5-1.5c0-0.6-0.2-1.1-0.5-1.5
		c-0.3-0.4-0.8-0.6-1.4-0.6c-0.6,0-1,0.2-1.3,0.6C129.4,17.7,129.2,18.2,129.2,18.8z"/>
	<path fill="#FFFFFF" d="M135.6,15.7h1.4v0.6c0.3-0.3,0.5-0.5,0.7-0.6c0.2-0.1,0.5-0.2,0.7-0.2c0.4,0,0.8,0.1,1.2,0.4l-0.7,1.3
		c-0.3-0.2-0.5-0.3-0.8-0.3c-0.8,0-1.2,0.6-1.2,1.8v3.2h-1.4V15.7z"/>
	<path fill="#FFFFFF" d="M146.3,21.8c0,0.3,0,0.6,0,0.8c0,0.2,0,0.4-0.1,0.6c-0.1,0.5-0.3,0.9-0.6,1.2c-0.6,0.6-1.3,1-2.3,1
		c-0.8,0-1.5-0.2-2.1-0.7c-0.6-0.5-0.9-1.1-1-1.9h1.4c0.1,0.3,0.1,0.5,0.3,0.7c0.3,0.4,0.7,0.6,1.3,0.6c1.1,0,1.6-0.6,1.6-1.9v-0.9
		c-0.6,0.6-1.2,0.9-2,0.9c-0.8,0-1.5-0.3-2.1-0.9c-0.5-0.6-0.8-1.4-0.8-2.3c0-0.9,0.3-1.7,0.8-2.3c0.5-0.7,1.3-1,2.2-1
		c0.8,0,1.4,0.3,2,0.9v-0.7h1.4L146.3,21.8L146.3,21.8z M144.9,18.8c0-0.6-0.2-1.1-0.5-1.4c-0.3-0.4-0.7-0.6-1.3-0.6
		c-0.5,0-1,0.2-1.3,0.6c-0.3,0.4-0.4,0.8-0.4,1.4c0,0.6,0.1,1,0.4,1.4c0.3,0.4,0.7,0.6,1.3,0.6c0.6,0,1-0.2,1.3-0.6
		C144.7,19.8,144.9,19.4,144.9,18.8z"/>
</g>
</svg>
