<?xml version="1.0" encoding="utf-8"?>
<!-- Generator: Adobe Illustrator 19.1.0, SVG Export Plug-In . SVG Version: 6.00 Build 0)  -->
<svg version="1.1" id="Layer_1" xmlns="http://www.w3.org/2000/svg" xmlns:xlink="http://www.w3.org/1999/xlink" x="0px" y="0px"
	 viewBox="0 0 150 50" style="enable-background:new 0 0 150 50;" xml:space="preserve">
<style type="text/css">
	.st0{fill:#FFFFFF;}
</style>
<g transform="matrix( 1, 0, 0, 1, 0,0) ">
	<g>
		<path class="st0" d="M25.5,37c-0.5,0-0.9-0.1-1.3-0.3c-0.4-0.2-0.9-0.6-1.5-1.2c-0.6,0.6-1,1-1.5,1.2c-0.8,0.4-1.8,0.4-2.7,0
			c0,0-0.1,0-0.1,0c0,0,0,0,0,0c-1.3-0.6-2.5-1.6-3.5-2.9c-0.8-0.9-1.4-2-1.9-3c-0.8-1.8-1.2-3.9-1.2-6.1c0-3.5,1.1-6.6,3.2-9.1
			c1-1.2,2.3-2.1,3.7-2.6c1.1-0.4,2.5-0.6,4.2-0.6c1.7,0,3.1,0.2,4.2,0.6c1.4,0.5,2.6,1.3,3.6,2.6c2.1,2.5,3.2,5.6,3.2,9.1
			s-1.1,6.6-3.2,9.1c-0.1,0.1-0.2,0.2-0.3,0.3c-0.9,1-1.8,1.7-2.8,2.3l-0.3,0.2c0,0,0,0,0,0c0,0,0,0-0.1,0l0,0c0,0,0,0,0,0
			c0,0,0,0-0.1,0c0,0-0.1,0-0.1,0c0,0,0,0,0,0C26.4,36.9,25.9,37,25.5,37z M23.7,34.3c0.6,0.7,0.9,0.9,1.1,1c0.4,0.2,0.9,0.2,1.4,0
			c0,0,0,0,0,0c0,0,0.1,0,0.1,0l0.3-0.2c0.8-0.5,1.6-1.1,2.4-2c0.1-0.1,0.2-0.2,0.3-0.3c1.9-2.2,2.8-4.9,2.8-8.1
			c0-3.2-0.9-5.9-2.8-8.1c-0.8-1-1.8-1.7-3-2.1c-0.9-0.3-2.2-0.5-3.7-0.5c-1.5,0-2.7,0.2-3.7,0.5c-1.1,0.4-2.1,1.1-3,2.1
			c-1.9,2.2-2.8,4.9-2.8,8.1c0,2,0.4,3.8,1.1,5.4c0.4,1,1,1.9,1.7,2.7c0.9,1.1,1.9,1.9,3,2.4c0,0,0.1,0,0.1,0.1c0.5,0.2,1,0.2,1.4,0
			c0.2-0.1,0.5-0.3,1.1-1c-0.8-1.1-1.7-1.9-2.6-2.5c0,0-0.1-0.1-0.1-0.1c-0.1-0.1-0.2-0.2-0.3-0.3c-0.3-0.2-0.5-0.5-0.7-0.7
			c-0.1-0.1-0.2-0.2-0.2-0.3c0,0-0.1-0.1-0.1-0.1c-1.3-1.6-2-3.5-2-5.8c0-2.3,0.7-4.3,2-5.9c0.7-0.8,1.5-1.4,2.4-1.7
			c0.7-0.3,1.6-0.4,2.7-0.4c1.1,0,2,0.1,2.7,0.4c0.9,0.3,1.7,0.9,2.4,1.7c1.4,1.6,2.1,3.6,2.1,5.9c0,2.3-0.7,4.3-2.1,5.9
			c-0.4,0.5-0.9,1-1.4,1.3C25.5,32.4,24.6,33.2,23.7,34.3z M19.9,30.4c0,0,0.1,0.1,0.1,0.1c0.9,0.6,1.8,1.5,2.7,2.6
			c0.9-1.1,1.8-1.9,2.8-2.6c0.4-0.3,0.8-0.6,1.1-1.1c1.1-1.3,1.7-2.9,1.7-4.8c0-2-0.5-3.5-1.7-4.9c-0.5-0.6-1-1-1.7-1.2
			c-0.6-0.2-1.3-0.3-2.2-0.3c-0.9,0-1.6,0.1-2.2,0.3c-0.7,0.2-1.2,0.6-1.7,1.2c-1.1,1.3-1.7,2.9-1.7,4.8c0,1.9,0.6,3.5,1.7,4.8
			c0,0,0.1,0.1,0.1,0.1c0,0.1,0.1,0.1,0.2,0.2c0.2,0.2,0.4,0.4,0.6,0.6C19.7,30.3,19.8,30.3,19.9,30.4z"/>
	</g>
</g>
<g>
	<path class="st0" d="M50.3,32.3h-2.9l0-1.5c-0.4,0.6-0.9,1.1-1.4,1.4c-0.6,0.3-1.2,0.4-2.1,0.4c-1.3,0-2.4-0.5-3.2-1.5
		s-1.2-2.3-1.2-4c0-1.7,0.4-3,1.2-4c0.8-1,1.9-1.4,3.4-1.4c0.8,0,1.4,0.2,2,0.5c0.6,0.3,1,0.8,1.4,1.5v-1.7h2.8V32.3z M47.6,27.3
		c0-0.9-0.2-1.6-0.7-2.2c-0.5-0.5-1.1-0.8-1.9-0.8c-0.8,0-1.4,0.3-1.9,0.8s-0.7,1.2-0.7,2.2c0,0.9,0.2,1.6,0.7,2.1
		c0.5,0.5,1.1,0.8,1.9,0.8c0.8,0,1.4-0.3,1.9-0.8C47.4,28.9,47.6,28.2,47.6,27.3z"/>
	<path class="st0" d="M51.4,18c0-0.5,0.2-0.9,0.5-1.2c0.3-0.3,0.7-0.5,1.2-0.5c0.5,0,0.9,0.2,1.2,0.5c0.3,0.3,0.5,0.7,0.5,1.2
		c0,0.5-0.2,0.9-0.5,1.2c-0.3,0.3-0.7,0.5-1.2,0.5c-0.5,0-0.9-0.2-1.2-0.5C51.6,18.9,51.4,18.5,51.4,18z M51.7,32.3V22.2h2.9v10.1
		H51.7z"/>
	<path class="st0" d="M58.9,24.8c0.3-1,0.7-1.7,1.3-2.2c0.6-0.5,1.2-0.7,2.1-0.7c0.2,0,0.5,0,0.9,0.1c0.1,0,0.1,0,0.2,0l-0.4,3.2
		c-0.2-0.1-0.4-0.2-0.7-0.2c-0.2,0-0.5-0.1-0.7-0.1c-0.9,0-1.5,0.2-1.9,0.7c-0.4,0.5-0.6,1.2-0.6,2.3v4.5h-2.9V22.2H59L58.9,24.8z"
		/>
	<path class="st0" d="M74.8,22.2l1.5,5.2c0,0.1,0.1,0.3,0.1,0.5c0,0.3,0.1,0.8,0.2,1.6c0.1-0.3,0.1-0.7,0.2-1
		c0.1-0.4,0.2-0.7,0.3-1.2l1.6-5.2H82l-3.5,10.1h-3.1l-1.5-5.2c0-0.1-0.1-0.3-0.1-0.5c-0.2-0.8-0.4-1.4-0.5-1.9
		c-0.1,0.5-0.2,0.9-0.3,1.3c-0.1,0.4-0.2,0.7-0.3,1.1l-1.6,5.3h-3.1l-3.5-10.1h3.2l1.5,5c0.1,0.5,0.3,0.9,0.3,1.2
		c0.1,0.4,0.2,0.7,0.2,1.1c0.1-0.4,0.1-0.8,0.2-1.2c0.1-0.4,0.2-0.8,0.3-1.1l1.4-5.1H74.8z"/>
	<path class="st0" d="M81.8,32.3V22.2h2.9v1.6c0.5-0.7,1.1-1.1,1.7-1.5c0.6-0.3,1.3-0.5,2-0.5c0.8,0,1.4,0.1,2,0.4
		c0.5,0.3,1,0.7,1.3,1.2c0.2,0.3,0.3,0.6,0.3,1c0.1,0.4,0.1,0.9,0.1,1.7v0.3v5.9h-2.9v-5c0-1.2-0.1-2.1-0.4-2.5
		c-0.3-0.4-0.8-0.6-1.5-0.6c-0.4,0-0.8,0.1-1.1,0.3c-0.3,0.2-0.6,0.4-0.9,0.7c-0.2,0.2-0.3,0.5-0.4,0.8s-0.1,0.8-0.1,1.4v0.4v4.5
		H81.8z"/>
	<path class="st0" d="M100.9,32c-0.4,0.2-0.8,0.4-1.3,0.5c-0.4,0.1-0.9,0.2-1.4,0.2c-1.6,0-2.9-0.5-3.9-1.5c-1-1-1.5-2.3-1.5-4
		c0-1.6,0.5-2.9,1.5-3.9c1-1,2.3-1.5,3.9-1.5c0.5,0,1,0.1,1.4,0.2c0.4,0.1,0.8,0.3,1.2,0.5l0,3c-0.3-0.3-0.7-0.6-1.1-0.7
		c-0.4-0.2-0.8-0.3-1.3-0.3c-0.8,0-1.5,0.3-2,0.8s-0.7,1.2-0.7,2c0,0.9,0.3,1.5,0.8,2c0.5,0.5,1.2,0.8,2.1,0.8
		c0.5,0,0.9-0.1,1.3-0.3c0.4-0.2,0.7-0.4,1-0.8L100.9,32z"/>
</g>
</svg>
