<?xml version="1.0" encoding="utf-8"?>
<!-- Generator: Adobe Illustrator 19.1.0, SVG Export Plug-In . SVG Version: 6.00 Build 0)  -->
<svg version="1.1" id="Layer_1" xmlns="http://www.w3.org/2000/svg" xmlns:xlink="http://www.w3.org/1999/xlink" x="0px" y="0px"
	 viewBox="0 0 320 320" style="enable-background:new 0 0 320 320;" xml:space="preserve">
<style type="text/css">
	.st0{fill:#CC0000;}
</style>
<g transform="matrix( 1, 0, 0, 1, 0,0) ">
	<g>
		<path class="st0" d="M188.5,244.6c-4,0-7.8-0.8-11.5-2.5c-4.6-2.1-10.1-6.9-16.9-14.8c-6.8,7.9-12.3,12.7-16.9,14.8
			c-7.4,3.3-15.4,3.3-23.8,0c-0.2-0.1-0.5-0.2-0.7-0.3c-0.2-0.1-0.3-0.1-0.5-0.2c-12.5-6.3-24-15.7-34.3-27.9
			c-7.7-9.2-14.1-19.2-18.9-29.9c-8.1-17.9-12.3-38-12.3-59.9C52.7,89,63.2,58.7,83.9,34c9.8-11.7,21.7-19.9,35.2-24.6
			c10.9-3.8,24.7-5.7,41-5.7c16.4,0,30.2,1.9,41,5.7c13.5,4.7,25.3,13,35.1,24.6c20.8,24.7,31.3,54.9,31.3,89.8
			c0,34.9-10.5,65.1-31.3,89.8c-1,1.1-1.9,2.3-2.9,3.4c-8.4,9.4-17.6,16.9-27.4,22.4l-1.9,1c-0.4,0.2-0.8,0.4-1.1,0.6
			c0,0-0.1,0-0.1,0.1c-0.3,0.1-0.5,0.3-0.7,0.4c-0.2,0.1-0.3,0.2-0.5,0.2c-0.1,0-0.1,0.1-0.2,0.1c-0.2,0.1-0.4,0.2-0.6,0.3
			c0,0,0,0-0.1,0c-0.1,0-0.2,0.1-0.2,0.1C196.4,243.8,192.4,244.6,188.5,244.6z M164.7,221.7c7.9,9.3,12.6,12.7,15.2,13.9
			c5.5,2.5,11.3,2.5,17.8,0l0,0c0.1,0,0.2-0.1,0.3-0.1c0,0,0,0,0,0l0,0c0.1,0,0.2-0.1,0.2-0.1l0,0c0.1-0.1,0.3-0.2,0.4-0.2
			c0.3-0.1,0.6-0.3,0.9-0.4c0.3-0.2,0.7-0.4,1.1-0.6l1.8-1c9-5.1,17.6-12.1,25.5-20.9c0.9-1,1.8-2.1,2.8-3.3
			c19.7-23.4,29.6-52,29.6-85.2c0-33.2-10-61.8-29.6-85.2c-8.9-10.7-19.7-18.2-32-22.5c-10.1-3.5-23.1-5.3-38.7-5.3
			c-15.5,0-28.6,1.8-38.7,5.3C109.1,20.4,98.3,28,89.4,38.6C69.8,62,59.9,90.7,59.9,123.9c0,20.8,3.9,40,11.6,57
			c4.6,10.1,10.6,19.5,17.9,28.2c9.6,11.4,20.3,20.2,31.9,26c0.4,0.1,0.7,0.3,1,0.5c6.5,2.5,12.4,2.5,18,0
			c2.6-1.2,7.3-4.6,15.2-13.9c-0.6-0.7-1.1-1.4-1.7-2.2c-9-11.6-18.6-20.9-28.3-27.6c-0.1,0-0.1-0.1-0.2-0.2
			c-0.1-0.1-0.2-0.2-0.3-0.2c-0.1-0.1-0.2-0.2-0.4-0.2c-1.1-0.8-2.1-1.7-3.1-2.5c-2.4-2.1-4.8-4.3-7-6.7c-0.8-0.8-1.5-1.6-2.2-2.4
			c-0.2-0.2-0.4-0.5-0.6-0.7c-13-15.5-19.6-34.3-19.7-56.1v-0.5c0-22,6.6-41.1,19.7-56.7c6.3-7.5,13.8-12.8,22.5-15.7
			c6.9-2.4,15.7-3.6,26-3.6c10.3,0,19,1.2,25.9,3.6c8.6,3,16.2,8.3,22.4,15.7c13.1,15.6,19.8,34.7,19.8,56.7v0.5
			c-0.1,21.8-6.8,40.7-19.8,56.2c-4.2,5.1-8.8,9.4-13.7,12.9c-9.8,6.7-19.4,16-28.4,27.6C165.8,220.3,165.3,221,164.7,221.7z
			 M129.6,186.1c10.3,7.1,20.4,16.8,29.8,29c0.2,0.3,0.5,0.6,0.7,0.9c0.2-0.3,0.5-0.6,0.7-0.9c9.5-12.2,19.5-22,29.9-29.1
			c4.3-3.1,8.4-7,12.3-11.6c11.9-14.2,18-31.5,18.1-51.6v-0.5c0-20.3-6.1-37.8-18.1-52.1c-5.4-6.5-11.9-11-19.3-13.6
			c-6.1-2.2-14.1-3.2-23.6-3.2c-9.5,0-17.5,1.1-23.6,3.2c-7.4,2.5-13.9,7.1-19.3,13.6c-12,14.3-18,31.8-18,52.1v0.5
			c0.1,20.1,6.2,37.4,18,51.6c0,0,0.1,0.1,0.1,0.1c0,0.1,0.1,0.1,0.2,0.2c0.1,0.1,0.2,0.2,0.2,0.3c0.6,0.7,1.2,1.4,1.9,2.1
			c0,0,0.1,0.1,0.1,0.1c2,2.2,4.2,4.3,6.3,6.1c0.9,0.7,1.8,1.5,2.8,2.2C129.1,185.7,129.3,185.9,129.6,186.1z"/>
	</g>
</g>
<g>
	<path class="st0" d="M95.5,314.9h-9.6L86,310c-1.4,2.2-3,3.8-4.9,4.8c-1.9,1-4.2,1.5-6.9,1.5c-4.5,0-8.2-1.7-11-5.1
		c-2.8-3.4-4.2-7.8-4.2-13.4c0-5.8,1.4-10.3,4.1-13.5c2.7-3.2,6.5-4.8,11.4-4.8c2.5,0,4.8,0.6,6.7,1.7c1.9,1.1,3.5,2.8,4.8,5.1v-5.7
		h9.4V314.9z M86.4,297.7c0-3.1-0.8-5.5-2.3-7.3c-1.5-1.8-3.6-2.7-6.3-2.7c-2.7,0-4.8,0.9-6.4,2.7c-1.5,1.8-2.3,4.2-2.3,7.3
		c0,3.1,0.8,5.5,2.3,7.2c1.5,1.7,3.6,2.6,6.3,2.6c2.7,0,4.9-0.9,6.4-2.6C85.7,303.2,86.4,300.8,86.4,297.7z"/>
	<path class="st0" d="M99.4,266.6c0-1.6,0.6-2.9,1.7-4.1c1.1-1.1,2.5-1.7,4.1-1.7c1.6,0,3,0.6,4.1,1.7c1.2,1.1,1.7,2.5,1.7,4.1
		c0,1.6-0.6,3-1.7,4.1c-1.2,1.1-2.5,1.7-4.1,1.7c-1.6,0-2.9-0.6-4.1-1.7C99.9,269.5,99.4,268.1,99.4,266.6z M100.2,314.9v-34.3h9.9
		v34.3H100.2z"/>
	<path class="st0" d="M124.8,289.4c1-3.3,2.4-5.8,4.3-7.5c1.9-1.7,4.2-2.5,7-2.5c0.6,0,1.7,0.1,3.1,0.3c0.3,0,0.5,0.1,0.6,0.1
		l-1.5,10.7c-0.7-0.3-1.5-0.5-2.3-0.7c-0.8-0.2-1.6-0.2-2.4-0.2c-3,0-5.2,0.8-6.5,2.3c-1.3,1.5-2,4.1-2,7.8v15.1h-10v-34.3h9.8
		L124.8,289.4z"/>
	<path class="st0" d="M178.4,280.6l5,17.7c0.1,0.3,0.2,1,0.4,1.9c0.2,0.9,0.4,2.7,0.8,5.4c0.2-1.1,0.5-2.2,0.8-3.4
		c0.3-1.2,0.7-2.5,1.2-4l5.3-17.7h10.8l-11.9,34.3h-10.6l-5.1-17.7c-0.1-0.3-0.2-0.8-0.5-1.6c-0.8-2.7-1.3-4.9-1.7-6.6
		c-0.3,1.6-0.6,3-0.9,4.3c-0.3,1.3-0.6,2.5-0.9,3.7l-5.3,17.9h-10.6l-11.9-34.3h10.9l5.2,17c0.5,1.5,0.8,2.9,1.2,4.2
		c0.3,1.2,0.6,2.5,0.8,3.8c0.2-1.4,0.4-2.8,0.7-4.1c0.3-1.3,0.6-2.6,0.9-3.8l4.6-17.1H178.4z"/>
	<path class="st0" d="M202.1,314.9v-34.3h9.7v5.4c1.8-2.2,3.7-3.9,5.8-4.9c2.1-1.1,4.3-1.6,6.9-1.6c2.7,0,4.9,0.4,6.7,1.3
		c1.8,0.9,3.2,2.3,4.3,4.1c0.5,1,0.9,2,1.1,3.2c0.2,1.2,0.3,3.1,0.3,5.6v1.1v20h-10V298c0-4.2-0.5-7-1.5-8.3c-1-1.3-2.7-2-5-2
		c-1.4,0-2.6,0.3-3.8,0.9c-1.2,0.6-2.1,1.4-2.9,2.4c-0.6,0.8-1,1.7-1.3,2.8c-0.3,1-0.4,2.6-0.4,4.8v1.4v15.1H202.1z"/>
	<path class="st0" d="M266.5,313.9c-1.4,0.8-2.8,1.4-4.3,1.8c-1.5,0.4-3.1,0.6-4.9,0.6c-5.4,0-9.8-1.7-13.2-5.2
		c-3.4-3.4-5.1-7.9-5.1-13.4c0-5.4,1.7-9.8,5.1-13.1c3.4-3.4,7.9-5.1,13.3-5.1c1.8,0,3.4,0.2,4.9,0.5c1.4,0.3,2.8,0.9,4.1,1.6
		l-0.1,10c-1-1.1-2.3-1.9-3.6-2.5c-1.4-0.6-2.8-0.9-4.4-0.9c-2.8,0-5,0.9-6.7,2.6c-1.7,1.7-2.5,4-2.5,6.8c0,2.9,0.9,5.2,2.6,6.9
		c1.7,1.7,4,2.6,6.9,2.6c1.6,0,3-0.3,4.3-0.9c1.2-0.6,2.4-1.5,3.4-2.7L266.5,313.9z"/>
</g>
</svg>
