<?xml version="1.0" encoding="utf-8"?>
<!-- Generator: Adobe Illustrator 18.1.1, SVG Export Plug-In . SVG Version: 6.00 Build 0)  -->
<!DOCTYPE svg PUBLIC "-//W3C//DTD SVG 1.1//EN" "http://www.w3.org/Graphics/SVG/1.1/DTD/svg11.dtd">
<svg version="1.1" id="レイヤー_1" xmlns="http://www.w3.org/2000/svg" xmlns:xlink="http://www.w3.org/1999/xlink" x="0px"
	 y="0px" viewBox="0 0 64 64" enable-background="new 0 0 64 64" xml:space="preserve">
<g id="kuRBXI_1_">
	<g>
		<g>
			<path fill="#FFFFFF" d="M47.9,57.1c-0.9-2.3-1.6-4.6-2-7c-0.5-3.1-0.3-6.1,1-9c0.7-1.7,1.8-3.1,3.1-4.3c0.5-0.5,0.7-0.9,0.7-1.6
				c0-5.6,0-11.2,0-16.7c0-1-0.3-1.9-1.1-2.6c-0.5-0.3-1.1-0.6-1.7-0.7c-1.5-0.1-3,0.1-4.5,0c-2.1-0.1-3.2,1.7-3.2,3.2
				c0,2.5,0,5,0,7.4c0,1.7,0,3.5,0,5.2c0,0.2,0,0.4,0,0.7c-0.3,0-0.5,0-0.7,0c-8.6,0-17.2,0-25.8,0c-2.2,0-3.8,1.4-4.1,3.5
				c-0.2,1,0.2,1.5,1.3,1.5c0.2,0,0.3,0,0.4,0c1.3,10.2,7,16.2,17,18.3c-0.8,2-1.7,4.1-2.5,6.1C14.5,58.9,2.6,48.5,2,32.6
				C1.5,17.3,12.5,4.5,27.2,2.1c15-2.5,29.5,6.7,33.7,21.3C64.9,37.8,57.9,51.2,47.9,57.1z"/>
			<path fill="#FFFFFF" d="M39.7,36.6c-0.4,1.5-0.9,3-1.2,4.5c-0.7,2.8-0.9,5.7-0.4,8.6c0.1,0.6,0.6,1,1.1,0.9
				c0.5-0.1,0.9-0.5,0.8-1.1c-0.7-4.6,0.4-8.9,1.9-13.1c0.1-0.4,0.2-0.8,0.2-1.2c0-4.5,0-9.1,0-13.6c0-0.1,0-0.2,0-0.3
				c2.2,0,4.4,0,6.7,0c0,0.2,0,0.4,0,0.6c0,4.3,0,8.5,0,12.8c0,0.3-0.1,0.6-0.3,0.8c-3.2,3.2-4.6,7.2-4.7,11.7
				c-0.1,3.6,0.7,7.1,2,10.5c0.1,0.2,0.1,0.4,0.2,0.5c-3.5,2.6-13.7,4.4-18.5,3.1c0.5-1.2,1-2.3,1.6-3.5c0.5-1.1,1.1-2.2,1.7-3.2
				c0.5-0.9,0.1-1.6-0.9-1.6c-2.3-0.1-4.6-0.7-6.7-1.7c-5.8-3-9.2-7.6-9.8-14.2c0-0.1,0-0.3,0-0.5C22.2,36.6,30.9,36.6,39.7,36.6z"
				/>
			<path fill="#FFFFFF" d="M11.8,34.6c0.4-0.8,1-1,1.7-1.1c0.1,0,0.3,0,0.4,0c8.6,0,17.1,0,25.7,0c0.2,0,0.4,0,0.7,0
				c0,0.4,0,0.7,0,1.1C30.8,34.6,21.3,34.6,11.8,34.6z"/>
			<path fill="#FFFFFF" d="M42.1,19.3c0-0.3,0-0.6,0-0.9c0-1.2,0.4-1.5,1.5-1.5c1.3,0,2.6,0,3.9,0c0.7,0,1.2,0.4,1.3,1.1
				c0,0.4,0,0.8,0,1.2C46.6,19.3,44.4,19.3,42.1,19.3z"/>
		</g>
	</g>
</g>
</svg>
